<svg clip-rule="evenodd" fill-rule="evenodd" stroke-linejoin="round" stroke-miterlimit="2" viewBox="0 0 512 512" xmlns="http://www.w3.org/2000/svg"><path d="m256 8c-136.981 0-248 97.166-248 217 0 67.909 35.747 128.456 91.547 168.272 9.3 6.684 14.725 17.534 13.078 28.966l-9.106 64.131c-1.357 9.3 5.812 17.631 15.209 17.631h75.272v-54.25c0-4.262 3.487-7.75 7.75-7.75h15.5c4.263 0 7.75 3.488 7.75 7.75v54.25h62v-54.25c0-4.262 3.488-7.75 7.75-7.75h15.5c4.262 0 7.75 3.488 7.75 7.75v54.25h75.272c9.397 0 16.566-8.331 15.209-17.631l-9.106-64.132c-1.647-11.334 3.681-22.281 13.078-28.965 55.8-39.816 91.547-100.363 91.547-168.272 0-119.834-111.019-217-248-217zm-93 310c-34.197 0-62-27.803-62-62s27.803-62 62-62 62 27.803 62 62-27.803 62-62 62zm186 0c-34.197 0-62-27.803-62-62s27.803-62 62-62 62 27.803 62 62-27.803 62-62 62z" fill="#777" fill-rule="nonzero"/></svg>