<svg clip-rule="evenodd" fill-rule="evenodd" stroke-linejoin="round" stroke-miterlimit="2" viewBox="0 0 512 512" xmlns="http://www.w3.org/2000/svg"><path d="m499.865 113.689c-2.17-8.748-13.117-11.712-19.492-5.338l-72.036 72.036-65.758-10.956-10.957-65.759 72.036-72.036c6.413-6.413 3.323-17.341-5.483-19.53-45.899-11.373-96.439.882-132.311 36.745-38.402 38.401-48.971 94.065-32.986 142.599l-206.721 206.722c-24.209 24.209-24.209 63.462 0 87.671s63.462 24.209 87.671 0l206.547-206.547c48.554 16.188 104.111 5.503 142.764-33.15 35.912-35.912 48.147-86.529 36.726-132.457zm-429.863 351.559c-12.836 0-23.25-10.414-23.25-23.25 0-12.846 10.414-23.25 23.25-23.25s23.25 10.404 23.25 23.25c0 12.836-10.414 23.25-23.25 23.25z" fill="#777" fill-rule="nonzero"/></svg>