<svg clip-rule="evenodd" fill-rule="evenodd" stroke-linejoin="round" stroke-miterlimit="2" viewBox="0 0 512 512" xmlns="http://www.w3.org/2000/svg"><path d="m488.435 116.435-92.87-92.87c-9.962-9.962-23.488-15.565-37.577-15.565h-296.845c-29.35 0-53.143 23.793-53.143 53.143v389.714c0 29.351 23.793 53.143 53.143 53.143h389.714c29.351 0 53.143-23.793 53.143-53.143v-296.845c0-14.089-5.603-27.615-15.565-37.577zm-232.435 316.708c-39.133 0-70.857-31.724-70.857-70.857s31.724-70.857 70.857-70.857 70.857 31.724 70.857 70.857-31.724 70.857-70.857 70.857zm106.286-337.147v111.29c0 7.337-5.949 13.285-13.286 13.285h-256.857c-7.337 0-13.286-5.948-13.286-13.285v-115.143c0-7.337 5.949-13.286 13.286-13.286h253.004c3.524 0 6.903 1.4 9.394 3.892l3.853 3.853c2.491 2.49 3.892 5.871 3.892 9.394z" fill="#777" fill-rule="nonzero"/></svg>